<?xml version="1.0" encoding="utf-8"?>
<!-- Generator: Adobe Illustrator 17.0.0, SVG Export Plug-In . SVG Version: 6.00 Build 0)  -->
<!DOCTYPE svg PUBLIC "-//W3C//DTD SVG 1.1//EN" "http://www.w3.org/Graphics/SVG/1.1/DTD/svg11.dtd">
<svg version="1.1" id="Layer_1" xmlns="http://www.w3.org/2000/svg" xmlns:xlink="http://www.w3.org/1999/xlink" x="0px" y="0px"
	 width="2047.68px" height="2048px" viewBox="0 0 2047.68 2048" enable-background="new 0 0 2047.68 2048" xml:space="preserve">
<g>
	<g>
		<path opacity="0.1" fill="#647EFF" enable-background="new    " d="M1920.746,1240.633l-1689.859-0.535
			c0,0-1.043-1.176-2.937-3.452c-0.749-0.908-1.638-1.988-2.651-3.241c-2.667-3.307-6.184-7.81-10.311-13.422
			c-1.608-2.179-3.308-4.531-5.078-7.036c-7.931-11.195-17.422-25.611-27.246-42.8c-2.443-4.264-4.901-8.709-7.366-13.317
			c-0.1-0.191-0.208-0.382-0.309-0.573c-0.812-1.511-1.615-3.05-2.435-4.598c0-0.01,0-0.01,0-0.01
			c-1.198-2.294-2.396-4.626-3.586-6.998c-4.375-8.7-8.711-17.906-12.885-27.581c-0.263-0.612-0.526-1.215-0.781-1.826
			c-2.906-6.778-5.735-13.795-8.441-21.013c-0.232-0.602-0.456-1.214-0.688-1.826c-0.317-0.851-0.626-1.711-0.943-2.572
			c-0.271-0.736-0.534-1.472-0.796-2.208c-0.665-1.835-1.314-3.681-1.956-5.545c-0.062-0.182-0.124-0.363-0.185-0.544
			c-0.185-0.516-0.363-1.042-0.541-1.559c-1.994-5.86-3.903-11.844-5.704-17.944c-0.873-2.916-1.716-5.86-2.528-8.833
			c-3.548-12.849-6.616-26.194-9.067-39.971c-1.754-9.875-3.192-19.971-4.251-30.276c-0.015-0.162-0.031-0.335-0.046-0.497
			c-1.538-15.067-2.28-30.563-2.033-46.443c1.074-69.568,20.986-146.259,74.543-224.66c27.246-39.875,55.235-72.79,83.609-99.511
			c12.004-11.3,24.07-21.5,36.189-30.649c60.421-45.62,121.925-65.19,181.271-66.003c2.396-0.028,4.792-0.038,7.181-0.019
			c70.075,0.822,136.935,27.514,195.153,67.943c37.287,25.889,117.704,21.94,208.719-42.475
			c11.903-8.422,23.985-17.877,36.181-28.45c30.207-26.166,61.086-59.091,91.517-99.845c1.878-2.514,3.749-5.057,5.62-7.629
			c14.376-19.722,28.63-41.204,42.643-64.559c0.271-0.459,0.541-0.908,0.819-1.348c4.406-7.265,9.044-14.273,13.905-21.032
			c110.044-153.152,332.25-177.922,511.396-100.906c12.282,5.277,24.364,11.033,36.19,17.266
			c41.948,22.083,80.726,50.094,114.094,83.64c6.756,6.778,13.287,13.795,19.579,21.032c17.6,20.239,33.321,42.236,46.763,65.907
			c1.43,2.524,2.837,5.067,4.22,7.629c45.875,85.151,62.532,191.277,31.946,315.308
			C1797.531,979.616,2048.753,988.774,1920.746,1240.633z"/>
		<polygon opacity="0.1" fill="#6490FF" enable-background="new    " points="1553.261,776.188 1553.261,723.224 1540.712,723.224 
			1540.712,632.154 1473.427,632.154 1473.427,723.224 1410.52,723.224 1410.52,574.828 1341.103,574.828 1341.103,671.16 
			1325.273,671.16 1325.273,556.152 1255.856,556.152 1255.856,771.784 1168.063,771.784 1168.063,897.526 1135.261,897.526 
			1135.261,841.547 1059.915,841.547 1059.915,874.656 1016.655,874.656 1016.655,726.435 963.216,726.435 963.216,836.146 
			909.778,836.146 909.778,1238.14 963.216,1238.14 1009.02,1238.14 1016.655,1238.14 1059.915,1238.14 1084.367,1238.14 
			1123.532,1238.14 1135.261,1238.14 1168.063,1238.14 1198.879,1238.14 1255.856,1238.14 1273.306,1238.14 1308.022,1238.14 
			1325.273,1238.14 1341.103,1238.14 1377.439,1238.14 1402.175,1238.14 1410.52,1238.14 1473.427,1238.14 1539.589,1238.14 
			1540.712,1238.14 1553.261,1238.14 1606.874,1238.14 1606.874,776.188 		"/>
		<polygon opacity="0.1" fill="#6490FF" enable-background="new    " points="916.869,849.353 916.869,1237.567 302.724,1237.567 
			302.724,899.747 349.801,899.747 349.801,807.551 396.879,807.551 396.879,932.11 434.991,932.11 434.991,904.278 
			501.381,904.278 501.381,951.33 530.275,951.33 530.275,845.661 607.618,845.661 607.618,664.452 668.774,664.452 
			668.774,761.099 682.722,761.099 682.722,680.139 743.878,680.139 743.878,804.847 799.306,804.847 799.306,728.318 
			858.586,728.318 858.586,804.847 869.64,804.847 869.64,849.353 		"/>
		<path fill="#FFFFFF" d="M1643.058,234.135V1235.27h-36.19v-1018.4C1619.15,222.147,1631.232,227.902,1643.058,234.135z"/>
		<path fill="#FFFFFF" d="M312.464,581.192v654.077h-36.189V611.842C288.278,600.542,300.344,590.341,312.464,581.192z"/>
		<path fill="#FFFFFF" d="M940.969,512.188v723.081h-36.181V540.638C916.69,532.216,928.772,522.761,940.969,512.188z"/>
		<g>
			<path fill="#F99746" d="M1532.443,344.399v168.219c0,1.473-0.016,2.919-0.044,4.323c-0.255,13.121-1.645,23.206-3.313,23.206
				h-0.477c-1.546,0-2.853-8.681-3.236-20.404c-0.033-0.966-0.06-1.953-0.077-2.96c0-0.069-0.005-0.137-0.005-0.213
				c-0.023-1.288-0.034-2.61-0.034-3.953V343.625C1527.679,343.817,1530.073,344.077,1532.443,344.399z"/>
			<path fill="#F99746" d="M1526.981,516.53c-26.16,0-47.368,27.735-47.368,61.948h94.735
				C1574.349,544.265,1553.142,516.53,1526.981,516.53z"/>
			<path fill="#FFB278" d="M1530.754,517.285c-1.36-0.367-2.749-0.56-4.16-0.56c-17.044,0-30.862,27.648-30.862,61.753h8.321
				C1504.053,547.196,1515.678,521.351,1530.754,517.285z"/>
		</g>
		<g>
			<path fill="#F99746" d="M1183.219,344.399v168.219c0,1.473-0.016,2.919-0.045,4.323c-0.255,13.121-1.645,23.206-3.313,23.206
				h-0.477c-1.545,0-2.852-8.681-3.235-20.404c-0.033-0.966-0.061-1.953-0.078-2.96c0-0.069-0.005-0.137-0.005-0.213
				c-0.022-1.288-0.033-2.61-0.033-3.953V343.625C1178.454,343.817,1180.847,344.077,1183.219,344.399z"/>
			<path fill="#F99746" d="M1177.757,516.53c-26.161,0-47.368,27.735-47.368,61.948h94.735
				C1225.124,544.265,1203.917,516.53,1177.757,516.53z"/>
			<path fill="#FFB278" d="M1181.53,517.285c-1.361-0.367-2.749-0.56-4.16-0.56c-17.045,0-30.862,27.648-30.862,61.753h8.321
				C1154.829,547.196,1166.453,521.351,1181.53,517.285z"/>
		</g>
		<path fill="#FFFFFF" d="M1823.494,404.714h-785.389c14.376-19.722,28.63-41.204,42.643-64.559
			c0.271-0.459,0.541-0.908,0.819-1.348c4.406-7.265,9.044-14.273,13.905-21.032h661.68c6.756,6.778,13.287,13.795,19.579,21.032
			C1794.331,359.046,1810.052,381.044,1823.494,404.714z"/>
	</g>
	<g>
		<path fill="#E4E4E4" d="M1947.678,944.609v296.446c-0.173,0.276-0.346,0.542-0.518,0.818c-4.332-0.438-8.645-0.941-12.938-1.509
			V959.137c0-6.175-2.201-11.187-4.908-11.198h-203.587c-2.707,0.012-4.908,5.023-4.908,11.198v195.235
			c-4.551-3.353-9.036-6.79-13.457-10.311V944.609c0-1.705,0.069-3.422,0.196-5.115c1.095-14.378,6.567-24.885,12.973-24.908
			h213.979c0.771,0.002,1.534,0.155,2.247,0.449c5.357,2.143,9.597,11.544,10.668,23.699
			C1947.597,940.669,1947.678,942.639,1947.678,944.609z"/>
		<polygon fill="#3F3D56" points="1864.717,846.093 1878.06,904.798 1886.585,914.137 1892.736,914.137 1867.387,807.4 
			1866.132,825.533 1866.132,825.546 		"/>
		<path fill="#3F3D56" d="M1909.148,917.137c-0.039-0.091-0.089-0.176-0.15-0.253c-0.123-0.277-0.299-0.528-0.518-0.737
			l-1.555-1.555l-8.18-8.191c-0.601-0.587-1.406-0.918-2.247-0.922h-0.035l-5.772,0.035l-4.966,0.035l-6.936,0.046l-47.236,0.3
			l-31.049,0.196c-1.75,0.022-3.159,1.442-3.168,3.191c0.005,0.465,0.107,0.924,0.3,1.348l0.599,1.279l1.256,2.684l1.636,3.514
			l0.806,1.728c0.525,1.123,1.652,1.842,2.892,1.843h101.396c1.797-0.034,3.225-1.519,3.191-3.316
			C1909.404,917.939,1909.314,917.524,1909.148,917.137L1909.148,917.137z"/>
		<path opacity="0.17" enable-background="new    " d="M1801.129,918.102l0.8,1.734c0.531,1.119,1.657,1.834,2.895,1.841h101.4
			c1.793-0.033,3.221-1.513,3.188-3.306c-0.008-0.423-0.098-0.841-0.266-1.23c-0.036-0.091-0.085-0.177-0.147-0.253
			L1801.129,918.102z"/>
		<polygon opacity="0.17" enable-background="new    " points="1866.132,825.533 1866.132,825.546 1887.84,914.137 
			1892.736,914.137 1867.387,807.4 		"/>
		<path fill="#3F3D56" d="M1900.185,577.613l-3.18-0.426c-0.873-0.114-1.755,0.122-2.454,0.657l-1.901,1.463l-21.164,26.475
			c-0.699,0.54-1.155,1.336-1.267,2.212l-1.187,9.009l-29.54,224.763c-0.105,0.833,0.104,1.675,0.588,2.362l13.917,38.365
			l0.415,0.599l0.899,1.279c0.463,0.649,1.14,1.115,1.912,1.313l2.016,0.507c0.927,0.232,1.908,0.056,2.696-0.484
			c0.791-0.532,1.313-1.381,1.429-2.327l3.606-27.397v-0.012l2.304-17.581l1.947-14.827v-0.012l31.844-242.206
			c0.239-1.821-1.043-3.491-2.864-3.731L1900.185,577.613z"/>
		<path opacity="0.17" enable-background="new    " d="M1892.645,579.308l-38.65,303.19l0.42,0.594l0.896,1.275
			c0.462,0.651,1.14,1.116,1.913,1.314l2.019,0.508c1.795,0.445,3.61-0.65,4.054-2.444c0.03-0.12,0.053-0.242,0.069-0.365
			l39.696-302.03c0.239-1.826-1.046-3.501-2.872-3.742l-3.188-0.419c-0.874-0.118-1.758,0.12-2.455,0.66L1892.645,579.308z"/>
		<polygon fill="#6C63FF" points="1891.506,587.978 1870.995,617.254 1846.617,802.743 1859.834,828.964 		"/>
	</g>
	<g>
		<g>
			<path fill="#D97657" d="M1698.873,721.14c0,0,5.169,0.929,7.148,0.525c1.979-0.404,2.787-3.352,2.504-5.331
				s-7.592-19.991-7.592-19.991"/>
			<g>
				<path fill="#D97657" d="M1607.297,803.927c9.283-23.501,1.152-72.618,0.118-78.681c-0.047-0.212-0.071-0.4-0.118-0.611
					l62.982,35.416c-1.058,1.763-1.645,4.16-1.903,6.933v0.024c-0.564,5.617,0.235,12.761,1.363,19.271
					c1.669,9.518,4.066,17.649,4.066,17.649H1607.297z"/>
				<path fill="#D97657" d="M1693.041,655.471c-8.226-21.151-47.002-29.376-74.028-5.875c-12.553,10.916-15.215,30.703-14.47,48.767
					c-0.654-0.319-1.224-0.55-1.606-0.645c-5.503-1.372-11.029,2.776-12.677,7.948c-1.312,4.12-0.424,8.776,1.928,12.403
					c1.955,3.015,5.13,5.826,8.522,7.119c0.852,0.325,4.652,0.956,7.333,0.726c2.581,11.887,8.641,22.861,18.005,30.642
					c11.81,9.812,26.932,13.749,41.982,10.625c11.701-2.428,29.019-9.926,33.317-22.073c1.118-3.16,1.221-6.577,1.262-9.929
					C1702.923,709.583,1702.444,679.652,1693.041,655.471z"/>
				<g>
					<g>
						<g>
							<ellipse fill="#011257" cx="1692.354" cy="696.208" rx="3.63" ry="7.431"/>
						</g>
					</g>
				</g>
				<path fill="#FFFFFF" d="M1678.742,730.946h23.942c0,0,0.881,12.632-11.604,12.045
					C1678.595,742.402,1678.742,730.946,1678.742,730.946z"/>
				<path fill="#AC412B" d="M1701.351,697.072c1.201,2.608,2.234,5.234,3.306,7.824c1.088,2.578,2.145,5.159,3.443,7.546
					c0.311,0.603,0.641,1.191,0.996,1.751c0.289,0.459,0.936,1.322,1.109,2.218c0.473,1.797-0.316,3.819-1.648,4.847
					c-1.336,1.166-3.11,1.398-4.586,1.218c-1.504-0.212-2.881-0.714-4.132-1.428c2.751,0.424,5.886,0.549,7.398-1.182
					c0.758-0.874,1.054-1.889,0.717-2.857c-0.153-0.501-0.382-0.792-0.871-1.503c-0.417-0.623-0.801-1.258-1.15-1.904
					c-1.358-2.608-2.345-5.321-3.086-8.089C1702.099,702.748,1701.568,699.936,1701.351,697.072z"/>
				<path fill="#011257" d="M1696.659,664.414c-5.287-27.026-26.047-29.18-34.272-29.768c-8.226-0.588-41.91,3.525-51.311,21.542
					c-9.4,18.017-6.534,42.174-6.534,42.174c7.174,6.727,9.863,17.764,9.863,17.764l8.512-4.123
					c0.041-3.909,0.697-3.688,1.937-7.395c1.421-4.248,3.612-8.282,4.261-12.714c0.365-2.498,0.226-5.038,0.281-7.563
					c0.075-3.434,0.512-6.86,1.301-10.202c0.379-1.605,0.849-3.214,1.711-4.62c0.438-0.714,0.963-1.355,1.538-1.956
					c4.038-4.223,10.039-6.07,15.803-5.117c4.824,0.797,9.678,2.351,14.283,3.431c1.843,0.432,3.773,0.793,5.614,0.355
					c1.373-0.326,2.601-1.074,3.818-1.787c3.07-1.796,6.288-3.448,9.775-4.151c0.035-0.007,0.07-0.014,0.105-0.021
					c5.333-1.041,11.652,1.329,13.266,6.518"/>
			</g>
		</g>
		<rect x="1497.8" y="1053.917" fill="#7BABE4" width="194.138" height="54.244"/>
		<path fill="#D97657" d="M1676.949,882.548c0,0,57.171-8.993,80.938-6.638s46.25-15.631,58.455,5.353
			c12.205,20.984-7.066,35.544-28.478,34.045s-31.69,2.784-61.239,6.852c-29.549,4.068-53.531,4.497-60.811,6.852
			s-28.05-27.622-27.622-33.617"/>
		<path fill="#243863" d="M1673.798,988.655c33.903,18.152,67.73,36.451,101.736,54.408c24.782,13.086,32.436,36.914,20.663,62.126
			c-13.469,28.845-25.939,58.157-38.856,87.261c-3.563,8.027-7.17,16.034-10.76,24.048c-1.423,3.177-3.816,5.245-7.156,6.222
			c-7.965,0.804-14.036,7.231-21.493,8.18c-6.896,0.877-14.266-0.347-21.39-1.126c-2.239-0.245-4.467-0.616-6.724-0.74
			c-2.107-0.241-4.212-0.486-6.054-1.673c-4.566-1.196-9.365-2.041-11.151-7.417c-2.109-3.103-1.457-6.239-0.085-9.366
			c13.094-29.846,26.399-59.599,39.72-89.344c1.927-4.303,3.852-8.609,5.693-12.947c2.901-6.838,1.629-9.927-5.417-12.109
			c-13.12-4.064-26.524-7.144-39.664-11.155c-2.366-0.722-4.782-1.25-6.396-3.359c-20.848-6.578-41.729-13.054-62.526-19.787
			c-7.788-2.521-15.353-5.722-23.078-8.451c-3.202-1.131-4.481-3.165-4.471-6.472c0.055-17.678,0.153-35.357-0.06-53.032
			c-0.056-4.643,2.367-4.763,5.799-4.757c22.404,0.04,44.808-0.029,67.212-0.063
			C1657.436,985.922,1665.605,986.655,1673.798,988.655z"/>
		<path fill="#C9C9C9" d="M1616.081,1224.12C1615.963,1224.132,1616.157,1224.127,1616.081,1224.12L1616.081,1224.12z"/>
		<path fill="#2F2E41" d="M1683.828,1250.836c2.013-0.084,4.026-0.168,6.04-0.252c14.875-2.937,29.752-2.928,44.63-0.019
			c4.702,0.074,9.403,0.192,14.105,0.216c21.357,0.108,34.077,11.834,36.047,33.264c-32.014,0.021-64.028-0.02-96.041,0.142
			c-3.914,0.02-5.387-0.913-5.213-5.069C1683.792,1269.701,1683.714,1260.265,1683.828,1250.836z"/>
		<path fill="#D97657" d="M1734.498,1250.566c-14.877,0.006-29.753,0.013-44.63,0.019c-0.005-1.59-0.011-3.179-0.017-4.769
			c-0.017-4.574-0.033-9.148-0.049-13.722c-0.931-1.536-1.259-3.062,0.083-4.557c8.182,0.554,16.376,0.97,24.541,1.714
			c4.856,0.442,9.195-0.3,11.833-4.663c1.591-2.632,3.637-2.06,5.828-1.997c2.445,0.07,4.891,0.088,7.338,0.129
			C1737.782,1232.001,1736.14,1241.283,1734.498,1250.566z"/>
		<path fill="#AFCFFD" d="M1673.798,988.655c-8.154,0.149-16.307,0.298-24.461,0.447c-2.028-1.493-4.368-0.826-6.564-0.839
			c-20.116-0.12-40.233-0.252-60.349-0.164c-3.957,0.017-5.856-0.622-5.822-5.274c0.232-31.612,0.187-63.226,0.231-94.839
			c0.436-1.713-0.06-3.508,0.458-5.216c0.627-2.067,0.133-4.248,0.64-6.329c2.632-8.871,3.71-18.232,8.367-26.46
			c2.234-3.795,3.338-7.843,2.741-12.271c0.181-15.831,2.517-30.787,17.182-40.405c2.56-1.679,3.415-3.555,3.333-6.587
			c-0.318-11.745,5.244-17.929,16.821-17.781c10.083,0.129,20.041-1.502,30.087-1.344c11.643,0.183,18.228,8.236,15.72,19.546
			c-0.997,4.498-0.318,8.492,1.358,12.565c4.53,11.004,10.028,21.581,14.403,32.649c0.319,4.535,3.219,8.6,2.484,13.337
			c1.824,8.874,2.626,17.813,1.96,26.88c-0.237,3.233-0.662,6.013-4.937,4.718c-1.614-0.489-2.739,0.164-4.023,0.829
			c-10.198,5.281-20.375,10.604-30.648,15.738c-2.734,1.366-3.652,2.392-1.658,5.367c2.613,3.898,4.43,8.319,6.809,12.387
			c6.635,11.343,11.427,13.416,24.328,10.78c-2.579,6.239-4.096,12.682-3.75,19.484
			C1676.371,960.07,1674.656,974.315,1673.798,988.655z"/>
		<path fill="#AFCFFD" d="M1577.748,882.912c1.028-1.827-2.046-4.652,1.432-5.885
			C1578.683,878.983,1579.646,881.295,1577.748,882.912z"/>
		<g>
			<g>
				<path fill="#7BABE4" d="M1448.106,1281.886h20.117c4.257-3.768,6.739-8.258,5.977-14.331c-0.278-2.217,1.909-2.952,3.402-3.968
					c21.368-14.54,42.742-29.072,64.115-43.605c8.311-5.651,16.621-11.302,24.939-16.943c1.317-0.893,2.452-2.254,4.91-1.741
					c0,5.39,0.119,10.876-0.045,16.353c-0.097,3.258,0.753,4.861,4.433,4.88c4.441,0.023,10.158-2.059,13.024,1.029
					c3.028,3.262,0.755,9.03,1.038,13.692c0.162,2.662-0.134,5.353,0.063,8.01c0.406,5.483-0.533,9.776-5.197,13.946
					c-7.138,6.382-6.014,14.384,2.403,22.678h20.246c7.447-9.014,7.139-17.821-0.969-25.915c-2.521-2.517-3.829-5.203-3.749-8.718
					c0.07-3.082-0.002-6.169,0.006-9.253c0.036-14.436-1.035-14.009,12.938-13.888c0.201,0.002,0.289,0.005,0.323,0.008
					c0.044-0.005,0.123-0.011,0.294-0.022c5.911-0.377,7-1.524,7.395-7.498c0.274-4.141-0.598-8.388,0.613-12.575
					c2.561,0.641,4.081,2.094,5.736,3.253c17.178,12.035,34.821,23.387,52.022,35.39c2.367,1.652,4.617,4.368,8.2,3.022
					c2.118-3.948,1.366-8.092,0.812-12.222c-1.025-3.386-4.184-4.706-6.558-6.781c-4.88-2.026-9.706-4.12-12.62-8.897
					c-13.758-8.975-27.011-18.724-40.878-27.537c-5.248-3.335-7.7-7.219-7.386-13.576c0.456-9.222,0.172-18.484,0.098-27.728
					c-0.067-8.439-0.623-9.257-8.935-9.665c-4.672-0.229-6-2.343-5.89-6.585c0.159-6.158,0.017-12.325,0.043-18.488
					c0.034-8.106,0.339-8.438,8.221-8.483c8.834-0.051,17.668,0.013,26.501-0.028c2.256-0.01,4.573,0.125,6.65-0.938
					c1.675-0.857,1.978-1.989,0.149-3.099c-2.532-1.062-5.225-0.924-7.886-0.926c-28.133-0.025-56.266-0.026-84.398,0
					c-2.66,0.002-5.354-0.14-7.902,0.943c-1.301,0.802-1.772,1.756-0.31,2.773c1.785,1.242,3.903,1.163,5.95,1.187
					c7.193,0.083,14.391,0.181,21.578-0.018c4.861-0.135,7.238,1.452,7.024,6.698c-0.276,6.771-0.232,13.567-0.011,20.342
					c0.154,4.732-1.703,6.537-6.463,6.68c-7.436,0.224-8.279,1.327-8.365,8.944c-0.115,10.275-0.085,20.553-0.006,30.828
					c0.031,4.047-1.31,7.031-4.755,9.344c-31.056,20.843-61.881,42.027-92.947,62.856c-2.565,1.72-5.087,2.165-8.141,1.535
					c-8.822-1.82-16.626,1.395-19.965,8.29C1440.052,1269.184,1441.701,1276.089,1448.106,1281.886z"/>
			</g>
		</g>
	</g>
	<g>
		<g>
			<path fill="#AA443D" d="M1324.245,1099.762c6.82,2.306,14.04,4.16,21.55,5.624c50.097,9.827,112.721,2.422,149-3.62
				c18.228-3.048,29.817-5.74,29.817-5.74s5.833-49.125,5.833-67.877c0-11.452-0.867-22.086-2.391-31.941
				c-10.424-67.62-51.564-98.429-54.478-100.537c-0.044-0.029-0.09-0.061-0.121-0.089c-0.029-0.016-0.044-0.028-0.044-0.028h-77.209
				l-28.321,14.564l-5.668,2.914l-2.152,1.109l-30.999,15.937l-0.766,26.649l-0.596,21.19L1324.245,1099.762z"/>
			<path fill="#AA443D" d="M1336.856,1089.831c1.436,5.204,3.378,10.408,5.938,15.221c50.097,9.827,112.721,2.422,149-3.62
				c0.077-0.089,0.133-0.194,0.194-0.282c12.355-18.797,17.918-41.498,18.498-63.971c0.576-22.108-3.229-43.478-9.526-66.531
				c-4.635-17.019-10.452-33.949-20.275-48.585c-7.461-11.113-17.438-20.788-29.446-26.842c-0.597-0.315-1.197-0.601-1.794-0.883
				c-13.25-6.176-27.785-6.446-42.333-6.329c-18.724,0.152-37.834,8.884-47.9,24.689c-9.15,14.358-9.988,32.256-12.201,49.141
				c-2.798,21.397-8.195,42.395-11.469,63.733C1332.266,1046.913,1331.161,1069.015,1336.856,1089.831z"/>
		</g>
		<g>
			<path fill="#7BABE4" d="M448.066,1491.831c-9.145-27.499-9.094-27.174-37.533-22.689c-45.014,7.098-90.147,11.896-135.375,1.624
				c-32.239-7.322-54.913-24.425-59.485-59.51c-38.431,4.116-77.024,8.204-111.666,27.132c-16.093,8.793-15.517,21.471,0.496,31.203
				c14.614,8.881,30.96,13.429,47.647,16.765c13.014,2.602,25.995,5.371,38.991,8.066c2.905,4.529,1.45,9.574,1.456,14.352
				c0.105,76.29,0.052,152.58,0.127,228.87c0.005,4.841-1.038,9.819,1.059,14.53c0.925,4.269,1.851,8.538,2.776,12.807
				c11.718-0.015,23.435-0.031,35.152-0.046c9.367-4.691,9.245-13.583,9.303-22.037c0.295-42.446,0.099-84.893,0.129-127.34
				c0.023-32.17-0.113-64.341,0.061-96.511c0.079-14.526,0.855-15.13,15.21-15.11c35.745,0.051,71.489,0.095,107.234-0.023
				c15.568-0.051,16.502,0.636,16.534,16.719c0.148,73.723-0.041,147.447,0.16,221.171c0.024,8.689-1.515,18.463,9.301,22.988
				c10.877,0.001,21.753,0.002,32.63,0.003c10.163-4.143,9.232-13.255,9.284-21.586c0.229-36.524,0.087-73.05,0.097-109.575
				c0.01-37.861,0.561-75.736-0.291-113.578C431.052,1506.189,433.469,1495.929,448.066,1491.831z"/>
			<path fill="#2D488F" d="M872.85,1238.75c-123.806,0.119-247.613,0.273-371.419,0.331c-31.729,0.015-63.458-0.275-95.187-0.425
				c-6.959-9.828-4.744-17.747,6.056-21.05c5.153-1.576,10.556-1.245,15.878-1.255c30.188-0.056,60.376,0.083,90.564-0.095
				c6.132-0.036,13.648,0.765,10.358-9.663c6.628-2.46,8.631-6.9,8.563-14.179c-0.41-44.237-0.171-88.48-0.225-132.722
				c-0.016-13.061,4.285-22.675,18.703-24.732c2.911-1.596,6.09-1.064,9.172-1.065c95.774-0.025,191.547-0.025,287.321-0.001
				c3.085,0.001,6.259-0.512,9.186,1.024c14.073,3.282,19.083,12.502,18.992,26.482c-0.328,50.436-0.326,100.878,0.04,151.313
				C880.925,1222.563,879.233,1231.207,872.85,1238.75z"/>
			<path fill="#2F2E41" d="M1490.938,1394.429c1.338,9.068,2.677,18.137,4.015,27.205c4.703,14.638-2.309,26.116-11.094,36.239
				c-19.895,22.925-47.336,29.802-75.842,31.387c-37.435,2.081-74.899,1.011-111.954-6.214
				c-19.426-3.788-19.488-3.472-27.857,14.559c-0.751,1.619-1.545,3.217-2.296,4.825c-18.996,53.26-40.075,105.743-59.796,158.738
				c-2.813,7.558-6.032,14.92-13.133,19.657c-6.523,4.362-13.418,4.118-20.292,1.204c-13.3-5.64-27.8-8.469-38.488-19.902
				c-5.326-5.697-14.205-6.88-21.638-9.704c-6.24-2.371-12.531-4.538-16.835-10.106c-4.318-5.942-4.195-12.59-2.726-19.28
				c15.034-68.494,30.129-136.977,46.16-205.245c3.569-15.197,12.284-27.426,25.319-36.694c18.1-12.869,38.201-21.318,59.16-27.832
				c12.761-3.966,25.758-7.251,38.78-10.337c2.797-0.512,5.581-1.106,8.35-1.775c11.159-1.949,22.17-4.901,33.598-5.11
				c18.095,6.745,37.518,7.593,56.025,12.565c31.085,8.352,61.299,18.963,90.209,33.254
				C1463.325,1388.152,1476.376,1393.832,1490.938,1394.429z"/>
			<path fill="#FB9742" d="M1490.938,1394.429c-7.352,4.301-14.14,2.613-21.455-0.897c-47.818-22.938-96.828-42.433-149.921-49.326
				c-5.581-0.724-9.937-3.463-14.511-6.113c-5.774-5.942-4.356-13.27-3.499-20.245c1.519-12.373,3.481-24.694,5.522-36.985
				c0.846-3.441,1.647-6.852,1.913-10.467c1.344-18.21,3.403-19.717,21.659-15.193c35.949,8.91,71.978,17.534,107.721,27.225
				c9.979,2.706,15.581,0.263,20.851-8.44c17.421-28.764,16.263-26.12-12.543-42.636c-34.398-19.722-71.841-18.305-108.526-23.303
				c-18.981-2.586-38.108-4.152-57.19-5.981c-5.308-0.509-10.691-1.365-14.49-5.857c11.037-25.77,21.746-51.687,33.234-77.255
				c6.975-15.525,20.502-21.755,36.866-21.666c5.183,0.028,9.503-0.631,13.776-3.596c46.529-32.28,92.93-31.194,135.909,3.246
				c3.003,2.406,6.09,3.042,9.663,3.734c28.127,5.445,40.785,29.355,29.756,55.803c-6.835,16.389-13.314,32.941-20.676,49.09
				c-7.026,15.413-8.042,32.028-9.392,48.22c-3.256,39.048-6.244,78.231-0.86,117.409
				C1495.853,1379.263,1495.636,1387.249,1490.938,1394.429z"/>
			<path fill="#7BABE4" d="M1262.559,1502.209c9.145-27.499,9.094-27.174,37.533-22.689c45.014,7.098,90.147,11.896,135.375,1.624
				c32.239-7.322,54.913-24.425,59.485-59.51c38.431,4.116,77.024,8.204,111.667,27.132c16.093,8.793,15.517,21.471-0.496,31.203
				c-14.614,8.881-30.96,13.429-47.647,16.765c-13.014,2.602-25.995,5.371-38.991,8.066c-2.905,4.528-1.45,9.574-1.456,14.352
				c-0.105,76.29-0.052,152.58-0.127,228.87c-0.005,4.841,1.038,9.819-1.059,14.53c-0.925,4.269-1.851,8.538-2.776,12.807
				c-11.718-0.015-23.435-0.031-35.152-0.046c-9.367-4.691-9.245-13.583-9.303-22.037c-0.295-42.446-0.099-84.893-0.129-127.34
				c-0.023-32.17,0.113-64.341-0.061-96.511c-0.079-14.526-0.855-15.13-15.21-15.11c-35.745,0.051-71.489,0.095-107.234-0.023
				c-15.568-0.051-16.502,0.636-16.534,16.719c-0.148,73.723,0.041,147.447-0.16,221.171c-0.024,8.689,1.515,18.463-9.301,22.988
				c-10.877,0.001-21.753,0.002-32.63,0.003c-10.163-4.143-9.232-13.255-9.284-21.586c-0.229-36.524-0.087-73.05-0.097-109.575
				c-0.01-37.861-0.561-75.736,0.291-113.578C1279.574,1516.568,1277.156,1506.307,1262.559,1502.209z"/>
			<path fill="#EBF2FB" d="M1269.952,1344.319c-1.345,2.574-3.579,1.896-5.719,1.564c-15.725-1.524-30.421,5.17-46.254,5.02
				c-35.243-0.333-70.538-2.041-105.787,1.9c-18.587,2.078-21.886-1.098-25.375-19.192c-2.95-15.299-7.632-30.349-7.417-46.165
				c1.497-7.377,7.577-4.521,11.878-5.07c11.481-1.464,20.428-9.847,20.292-20.612c-0.146-11.562-6.176-19.479-17.678-21.645
				c-7.327-1.38-14.977-1.047-22.482-1.481c-7.953-16.887-10.872-34.808-10.944-53.313c-2.709-13.79-5.253-27.614-8.208-41.351
				c-1.161-5.396,0.474-7.026,5.827-6.897c11.515,0.279,23.042,0.085,34.563,0.085c13.041,2.964,26.269,0.526,39.38,1.386
				c4.772,0.313,9.703-1.155,14.303,1.203c28.934-0.174,57.833,0.27,86.716,2.499c7.49,0.578,9.639,2.929,10.179,10.253
				c0.811,10.985,3.331,21.844,5.125,32.756c-4.355,1.892-7.605-1.304-11.282-2.476c-13.755-4.385-29.096,0.181-37.133,11.103
				c-7.942,10.793-7.697,25.271,0.632,37.407c7.341,10.697,21.776,14.94,35.83,10.532c21.141-6.63,21.108-6.625,24.365,15.197
				c1.574,10.545,3.107,21.096,4.68,31.656c2.374,13.817,3.737,27.758,5.621,41.627
				C1271.703,1334.989,1273.071,1339.875,1269.952,1344.319z"/>
			<path fill="#B0D2FF" d="M215.804,1238.857c-5.453-0.045-10.907-0.089-16.357-0.135c-0.006-23.728-12.199-43.596-20.294-64.802
				c-4.957-12.985-13.332-24.697-12.416-39.917c1.063-17.658,14.107-34.189,31.64-36.562c4.578-0.62,8.363-1.189,11.817-4.715
				c24.276-24.784,53.578-29.613,86.387-22.136c18.585,4.235,36.878,8.663,51.829,21.295c3.604,3.045,7.394,2.38,11.328,2.357
				c17.639-0.104,31.126,7.763,38.342,23.474c11.398,24.815,21.385,50.279,31.969,75.468c-4.077,4.996-10.049,5.697-15.718,6.174
				c-37.727,3.174-75.221,8.78-112.992,11.269c-16.66,1.098-30.85,8.006-45.227,15.045
				C243.275,1231.954,230.145,1237.225,215.804,1238.857z"/>
			<path fill="#FEB7B7" d="M1261.752,1287.605c-1.801-13.178-4.291-26.311-5.177-39.551c-0.669-9.995-2.878-11.168-11.72-6.202
				c-21.918,12.309-43.915,4.301-52.293-18.064c-4.915-13.12-1.035-29.302,9.012-37.589c11.963-9.867,28.749-11.729,41.16-4.527
				c1.921,1.115,3.748,2.393,5.619,3.594c5.755,4.117,8.131,13.827,18.116,10.947c47.874,5.349,95.711,11.095,143.657,15.7
				c9.171,0.881,15.191,5.433,22.554,9.321c13.324,7.036,27.553,12.624,41.88,17.378c6.681,2.217,6.347,4.583,3.709,9.204
				c-0.439,0.77-1.101,1.409-1.6,2.149c-8.627,12.794-11.999,33.299-25.429,37.401c-12.424,3.795-28.917-5.602-43.587-9.314
				c-26.823-6.786-53.767-13.16-80.366-20.74c-11.343-3.233-15.757-0.851-14.99,11.026c0.221,3.429-1.039,6.953-1.621,10.433
				c-1.012-0.195-1.85,0.016-2.213,0.778C1298.241,1300.985,1280.75,1304.007,1261.752,1287.605z"/>
			<path fill="#FFAF82" d="M215.804,1238.857c19.444-9.322,40.197-15.645,58.67-27.395c6.168-3.923,15.409-3.305,23.31-4.167
				c44.077-4.805,88.174-9.427,132.264-14.113c8.411,2.146,12.275-4.595,15.991-9.448c12.378-16.164,49.403-11.466,56.479,12.381
				c4.001,13.483,10.203,12.988,19.978,11.148c2.166-0.408,4.4-0.456,6.604-0.67c4.493,0.478,9.164,0.479,8.588,7.259
				c-0.576,6.782-5.458,5.939-9.815,5.945c-35.735,0.046-71.471-0.05-107.206,0.068c-14.972,0.049-18.069,4.281-14.423,18.791
				C342.764,1238.723,279.284,1238.79,215.804,1238.857z"/>
			<path fill="#FEB8B8" d="M1060.468,1185.327c5.846,17.319,8.851,35.222,10.942,53.313c-11.675,0.024-23.352,0.048-35.027,0.073
				c-6.54-16.301-7.123-31.68,6.52-45.135C1047.855,1188.692,1053.314,1185.315,1060.468,1185.327z"/>
			<path fill="#E4E4E4" d="M1516.843,1762.552c-0.054-82.207-0.122-164.414-0.119-246.622c0-3.861-1.205-8.184,2.76-11.131
				c-0.048,80.796-0.062,161.592-0.229,242.387C1519.245,1752.34,1521.081,1757.984,1516.843,1762.552z"/>
			<path fill="#E5E5E5" d="M1146.333,1139.754c-17.864-1.479-36.031,3.308-53.682-2.59
				C1110.51,1138.734,1128.683,1133.829,1146.333,1139.754z"/>
			<path fill="#B0D2FF" d="M205.872,1393.348c-5.014-10.975-3.456-22.222-2.471-33.795c2.177-25.558,3.057-51.219-0.247-76.807
				c61.768,0.001,123.519-0.001,185.253,0c1.451,11.302,2.49,22.681,4.556,33.871c1.166,6.315,0.903,12.197-0.873,18.191
				c-1.816,7.906-8.857,8.311-14.659,9.254c-49.745,8.081-96.676,24.402-141.822,46.577
				C226.617,1395.056,216.652,1402.527,205.872,1393.348z"/>
			<path fill="#2F2E41" d="M607.253,1692.467c10.241-2.711,20.403-5.778,30.739-8.061c22.709-5.017,43.815,4.723,55.218,24.482
				c3.632,6.294,2.993,9.045-4.407,11.229c-21.686,6.403-43.093,13.746-64.755,20.231c-6.966,2.085-11.654,3.19-5.02,11.401
				c5.374,6.651,7.359,15.1,7.719,23.741c-38.741,0.089-77.484,0.015-116.222,0.402c-8.008,0.08-10.69-2.415-10.92-10.645
				c-0.979-34.998-1.244-34.968,33.186-35.111c5.755-0.024,11.614,0.654,17.132-1.776c5.129-3.872,10.922-6.832,8.378-15.507
				c-1.71-5.83,4.191-7.925,8.334-10.367C580.013,1698.476,592.312,1690.093,607.253,1692.467z"/>
			<path fill="#2F2E41" d="M1082.327,1695.087c2.52,0.221,5.039,0.442,7.558,0.663c14.618-0.652,27.11,7.368,40.926,9.994
				c13.341,2.879,6.065,14.888,9.845,22c11.504,2.963,23.106,0.534,34.613,1.03c7.606,0.327,15.092,0.513,21.993,4.2
				c0.011,11.16-0.227,22.327,0.126,33.476c0.22,6.939-2.502,9.431-9.406,9.393c-36.156-0.201-72.315-0.118-108.473-0.061
				c-7.379,0.011-11.548-1.362-5.638-9.423c1.474-2.01,1.572-5.03,2.302-7.586c-2.531-6.3,3.742-8.588,5.825-12.785
				c-4.202-3.195-5.81-7.238-5.552-12.668c0.445-9.339,0.134-18.714,0.121-28.075
				C1076.559,1700.754,1076.018,1695.985,1082.327,1695.087z"/>
			<path fill="#FEB7B7" d="M1197.262,1732.974c-16.474-1.966-32.998-0.678-49.5-0.875c-4.653-0.055-9.733,2.229-13.964-1.684
				c8.677-3.734,10.74-10.301,9.052-19.193c-1.322-6.965-3.085-13.968-2.342-22.339c-3.86,7.131-3.772,15.19-10.216,19.701
				c-13.853-3.067-27.373-7.181-40.406-12.833c2.945-18.2,5.89-36.399,8.838-54.596c0.426,0.137,0.852,0.266,1.273,0.407
				c25.353,8.527,45.638,27.131,70.999,35.684c6.792,2.291,13.416,4.711,20.552,1.589c0.058,13.179,0.72,26.392-0.062,39.52"/>
			<path fill="#FFAF82" d="M506.902,1727.083c0.092-16.782,0.184-33.563,0.275-50.345c3.024-3.975,7.862-3.522,11.95-4.907
				c14.075-4.767,27.788-8.719,39.776-19.544c9.946-8.981,24.686-12.989,39.142-13.543c3.069,17.907,6.137,35.814,9.206,53.722
				c-13.512,4.456-27.025,8.911-40.538,13.367c-8.219-7.681-9.176-17.459-9.269-24.37c0.574,8.729-1.709,20.731-3.166,32.834
				c-0.585,4.859-0.562,9.874-5.455,12.862C534.85,1727.134,520.876,1727.108,506.902,1727.083z"/>
			<path fill="#BAE8E4" d="M709.673,1158.612c-11.762,0.281-19.057-6.637-19.607-18.597c-0.539-11.733,8.688-21.617,20.137-21.572
				c9.955,0.039,19.471,9.562,19.805,19.819C730.364,1149.178,721.212,1158.336,709.673,1158.612z"/>
			<path fill="#1F3E7A" d="M598.046,1638.745c-6.068,2.662-12.037,5.586-18.226,7.928c-9.702,3.671-18.185,8.006-26.729,15.004
				c-12.279,10.057-28.967,14.949-45.912,15.064c-11.403-8.358-12.453-22.268-17.157-33.867
				c-13.808-34.045-26.136-68.69-39.044-103.101c-6.875-17.74-14.814-35.161-20.263-53.329
				c-3.818-12.731-9.113-16.009-22.265-13.232c-44.163,9.322-88.793,14.049-133.891,7.136c-18.204-2.79-35.256-8.52-50.201-19.947
				c-19.538-14.939-20.851-35.928-20.243-57.749c0.581-3.09,1.161-6.18,1.749-9.286c16.104,2.857,28.815-6.333,42.127-12.467
				c41.005-18.892,83.222-33.591,128.117-39.838c5.818-0.81,11.141-2.935,15.986-6.25c37.644,7.178,74.901,15.301,110.769,29.692
				c34.366,13.789,51.946,37.608,58.713,74.074c10.944,58.976,25.527,117.278,38.686,175.839
				C602.161,1622.861,603.813,1631.088,598.046,1638.745z"/>
			<path fill="#2F2E41" d="M1093.316,1699.464c0,0-17.563-12.474-55.184-9.081c-37.621,3.393-40.216,38.918-40.216,38.918
				l101.288,20.657"/>
			<path fill="#2F2E41" d="M1111.578,1730c0,0-41.014-1.397-58.677,13.272c-17.663,14.669-20.657,33.031-20.657,33.031
				s68.057,0.2,80.332-0.1c12.274-0.299,78.436-0.798,78.436-0.798"/>
			<rect x="168.154" y="1235.935" fill="#2F2E41" width="950.01" height="47.9"/>
		</g>
		<g>
			<g>
				<path fill="#32324C" d="M379.383,895.048c0,0,16.302,10.748,10.461,39.949c-5.84,29.202-17.131,32.316-17.131,32.316
					S355.609,902.656,379.383,895.048z"/>
			</g>
			<g>
				<path fill="#FFAF82" d="M304.409,1031.496l-2.066,36.923l-0.946,16.923c-21.268,15.734-55.852-5.923-55.852-5.923l-3.696-54.731
					c9.842-6.634,35.199-1.114,50.442,3.114C299.471,1029.798,304.409,1031.496,304.409,1031.496z"/>
			</g>
			<g>
				<path fill="#32324C" d="M376.097,909.923c0,0,39.833-18.533,28.153-51.239c-11.681-32.705-59.334-17.664-102.187-16.035
					c-69.004,2.623-90.621,38.517-88.869,75.896c1.753,37.377,1.356,87.484,18.292,106.172c16.937,18.689,28.509-7.728,37.27-31.106
					C277.517,970.234,331.591,898.671,376.097,909.923z"/>
			</g>
			<g>
				<path fill="#FFAF82" d="M379.698,941.722c-0.024,1.261-0.047,2.546-0.082,3.843c-0.712,23.209-4.707,51.406-8.643,74.346
					c-4.182,24.342-27.648,40.438-51.862,35.556c-29.154-5.888-65.107-14.823-81.506-25.604c-4.988-3.271-8.153-6.716-8.784-10.302
					c-1.472-8.363-2.277-19.775-2.651-32.191c-1.157-37.635,1.588-84.59,1.588-84.59c35.042-43.522,132.702-26.539,147.571,5.303
					C378.728,915.371,379.908,927.448,379.698,941.722z"/>
			</g>
			<path fill="#920E08" d="M358.122,1009.141c0,0-0.45,1.11-1.436,2.709c-1.541,2.498-4.403,6.174-8.95,8.625
				c-4.279,2.307-10.051,3.513-17.613,1.608c-6.71-1.694-11.037-4.958-13.793-8.73c-3.886-5.293-4.672-11.582-4.662-15.852
				c0.01-2.958,0.402-4.949,0.402-4.949C330.094,1006.192,358.122,1009.141,358.122,1009.141z"/>
			<g>
				<ellipse fill="#32324C" cx="316.938" cy="962.739" rx="4.867" ry="8.857"/>
			</g>
			<g>
				<ellipse fill="#32324C" cx="366.759" cy="962.739" rx="4.867" ry="8.857"/>
			</g>
			<g>
				<path fill="#32324C" d="M225.998,952.884c0,0,15.601-10.159,28.742,7.975h10.22c0,0-0.583-20.995,4.381-32.383
					c4.964-11.389,24.529-11.097,27.449-24.529c0,0,46.191,18.377,79.308,5.976c33.117-12.401-66.167-67.591-114.057-40.726
					C214.15,896.063,218.574,917.139,225.998,952.884z"/>
			</g>
			<g>
				<path fill="#32324C" d="M237.605,1029.863c-4.988-3.271-8.153-6.716-8.784-10.302c-1.472-8.363-2.277-19.775-2.651-32.191
					l25.779,17.719C251.948,1005.088,252.287,1023.439,237.605,1029.863z"/>
			</g>
			<g>
				<path fill="#E58E63" d="M345.266,991.211c-0.776,0-1.545-0.349-2.053-1.015c-0.865-1.132-0.646-2.752,0.485-3.617l6.881-5.251
					l-5.964-1.545c-0.991-0.258-1.736-1.079-1.9-2.09l-2.629-16.425c-0.225-1.408,0.734-2.73,2.141-2.955
					c1.398-0.234,2.732,0.732,2.957,2.139l2.362,14.758l9.464,2.454c0.955,0.25,1.684,1.02,1.881,1.987
					c0.195,0.968-0.18,1.963-0.964,2.563l-11.096,8.468C346.363,991.038,345.812,991.211,345.266,991.211z"/>
			</g>
		</g>
		<g>
			<g>
				<g>
					<path fill="#FEB7B7" d="M1390.395,1039.652l2.216,39.603l1.015,34.001c22.812,16.876,59.906-4.817,59.906-4.817l3.965-76.09
						c-10.556-7.115-37.754-1.194-54.103,3.34C1395.692,1037.831,1390.395,1039.652,1390.395,1039.652z"/>
				</g>
				<g>
					<path fill="#FEB7B7" d="M1309.642,943.362c0.025,1.353,0.05,2.731,0.088,4.122c0.764,24.893,5.049,55.137,9.271,79.742
						c4.485,26.109,29.654,43.373,55.626,38.136c31.27-6.315,69.833-15.899,87.422-27.462c5.35-3.508,8.745-7.203,9.421-11.05
						c1.579-8.97,2.443-21.211,2.844-34.528c1.241-40.367-1.703-90.729-1.703-90.729c-37.585-46.681-142.333-28.465-158.282,5.688
						C1310.682,915.099,1309.417,928.053,1309.642,943.362z"/>
				</g>
				<path fill="#920E08" d="M1332.785,1015.674c0,0,0.483,1.191,1.54,2.906c1.653,2.68,4.723,6.622,9.6,9.25
					c4.589,2.474,10.78,3.768,18.891,1.725c7.197-1.817,11.838-5.318,14.794-9.363c4.168-5.677,5.01-12.423,5-17.002
					c-0.01-3.173-0.431-5.308-0.431-5.308C1362.846,1012.512,1332.785,1015.674,1332.785,1015.674z"/>
				<g>
					<ellipse fill="#32324C" cx="1376.957" cy="965.905" rx="5.22" ry="9.5"/>
				</g>
				<g>
					<ellipse fill="#32324C" cx="1323.52" cy="965.905" rx="5.22" ry="9.5"/>
				</g>
				<g>
					<path fill="#F88968" d="M1346.573,996.443c0.832,0,1.658-0.375,2.202-1.089c0.928-1.214,0.693-2.951-0.521-3.879l-7.381-5.633
						l6.397-1.658c1.063-0.276,1.863-1.158,2.038-2.241l2.82-17.617c0.241-1.51-0.787-2.928-2.296-3.17
						c-1.499-0.251-2.93,0.785-3.171,2.294l-2.533,15.829l-10.151,2.632c-1.025,0.268-1.807,1.094-2.018,2.132
						c-0.209,1.039,0.193,2.105,1.034,2.749l11.902,9.083C1345.396,996.257,1345.987,996.443,1346.573,996.443z"/>
				</g>
			</g>
			<g>
				<path fill="#AA443D" d="M1306.254,932.628c0.178,9.931,1.124,17.965,1.653,21.8c0.224,1.586,0.368,2.456,0.368,2.456
					c36.235-25.471,36.36-54.762,35.353-63.997c9.832,51.324,118.594,80.836,118.594,80.836l15.271,6.654
					c0,0,4.345-4.441,8.21-13.376c6.208-14.29,11.193-40.061-4.718-77.564c-4.154-9.814-9.909-17.402-16.614-23.226
					c-0.048-0.031-0.096-0.065-0.13-0.095c-35.029-30.234-96.155-12.767-96.155-12.767
					C1313.151,848.328,1305.709,900.471,1306.254,932.628z"/>
				<path fill="#AA443D" d="M1306.254,932.628c0.788-0.254,1.54-0.574,2.292-0.929c17.195-7.809,28.345-30.572,34.07-45.677
					c3.126-8.263,4.652-14.23,4.652-14.23c0.142,2.824,1.522,6.226,3.736,9.914c11.163,18.669,43.564,45.038,43.564,45.038
					l-4.813-14.852c0,0,8.855,14.432,42.375,35.574c13.649,8.595,34.099,14.981,53.573,19.534c13.792,3.224,27.091,5.534,37.1,7.043
					c-2.088-13.52-5.309-25.677-9.208-36.521c-17.001-47.269-46.672-69.466-49.223-71.313c-0.048-0.031-0.096-0.065-0.13-0.095
					c-35.029-30.234-96.155-12.767-96.155-12.767c-3.895-0.355-7.553-0.419-10.986-0.225
					C1312.139,855.627,1305.739,902.748,1306.254,932.628z"/>
			</g>
		</g>
	</g>
	<g>
		<rect x="1794.553" y="1378.295" fill="#535461" width="8.717" height="196.273"/>
		<path fill="#1F3E7A" d="M1858.064,1573.97l-0.542,8.842l-0.779,12.513l-0.32,5.2l-0.765,12.513l-0.334,5.2l-0.779,12.513
			l-8.787,141.911c-0.793,12.673-11.3,22.547-23.997,22.551h-45.7c-12.692-0.005-23.191-9.883-23.969-22.551l-8.815-142.008
			l-0.765-12.513l-0.32-5.2l-0.792-12.513l-0.32-5.2l-0.765-12.513l-0.556-8.843c-0.392-6.9,4.884-12.81,11.784-13.202
			c0.215-0.012,0.43-0.019,0.646-0.02h93.458c6.911,0.039,12.481,5.673,12.442,12.584
			C1858.088,1573.48,1858.079,1573.725,1858.064,1573.97z"/>
		<polygon fill="#FFFFFF" points="1857.521,1582.813 1856.743,1595.284 1741.095,1595.284 1740.316,1582.813 		"/>
		<polygon fill="#FFFFFF" points="1856.423,1600.498 1855.658,1612.983 1742.193,1612.983 1741.415,1600.498 		"/>
		<polygon fill="#FFFFFF" points="1855.325,1618.183 1854.546,1630.654 1743.278,1630.654 1742.513,1618.183 		"/>
		<path fill="#BAE8E4" d="M1726.997,1451.857c50.775,36.733,71.922,94.181,71.922,94.181s-61.175-2.099-111.964-38.832
			s-71.908-94.167-71.908-94.167S1676.236,1415.139,1726.997,1451.857z"/>
		<path fill="#BAE8E4" d="M1759.767,1377.864c27.64,19.979,39.152,51.261,39.152,51.261s-33.368-1.154-60.938-21.133
			s-39.068-51.262-39.068-51.262S1732.141,1357.871,1759.767,1377.864z"/>
		<path fill="#BAE8E4" d="M1839.072,1427.526c-31.714,34.883-38.457,80.5-38.457,80.5s44.755-10.984,76.468-45.881
			s38.457-80.472,38.457-80.472S1870.813,1392.629,1839.072,1427.526z"/>
	</g>
	<g>
		<path fill="#91B4E8" d="M891.921,1123.353c0,0-6.831,54.296,45.052,60.721l3.225-6.019
			C940.198,1178.055,895.146,1140.241,891.921,1123.353z"/>
		<path fill="#91B4E8" d="M956.68,1177.624l-12.063,2.54l-1.194,0.279c0,0-37.027-26.132-36.62-84.466
			c0,0,9.498,10.158,20.19,24.329C939.766,1137.295,954.267,1159.72,956.68,1177.624z"/>
		<path fill="#91B4E8" d="M960.845,1183.236c-1.93,1.245-4.319,1.553-6.501,0.838c-30.983-7.238-25.396-108.16-25.396-108.16
			c1.701,0.787,8.406,13.612,15.517,30.196C956.984,1135.238,970.698,1175.922,960.845,1183.236z"/>
		<path fill="#91B4E8" d="M1024.639,1123.353c0,0,6.831,54.296-45.052,60.721l-3.2-6.019
			C976.387,1178.055,1021.413,1140.241,1024.639,1123.353z"/>
		<path fill="#91B4E8" d="M1009.757,1096.002c0.406,58.41-36.595,84.466-36.595,84.466l-1.193-0.279l-12.063-2.54
			c2.387-17.904,16.913-40.43,29.637-57.293C1000.284,1106.16,1009.757,1096.002,1009.757,1096.002z"/>
		<path fill="#91B4E8" d="M971.765,1177.928c-1.869,2.265-4.232,4.072-6.908,5.282l0,0c-0.815,0.368-1.666,0.649-2.54,0.838
			c-7.619,1.778-10.285-3.708-9.854-13.053c0.711-16.634,11.174-45.458,20.545-67.019c6.755-15.542,13.003-27.326,14.628-28.088
			C987.637,1075.914,992.005,1154.488,971.765,1177.928z"/>
		<path fill="#91B4E8" d="M958.305,1040.512c0,0-29.764,122.661,0,141.149C988.069,1200.15,965.924,1051.356,958.305,1040.512z"/>
		<polygon fill="#565661" points="1004.957,1187.706 1002.875,1198.55 995.306,1238.37 923.284,1238.37 915.716,1198.55 
			913.634,1187.706 		"/>
		<rect x="896.365" y="1175.643" fill="#565661" width="123.855" height="20.52"/>
	</g>
	<g>
		<rect x="366.134" y="358.573" fill="#EDEDF4" width="479.637" height="402.133"/>
		<rect x="388.548" y="421.15" fill="#FFFFFF" width="436.029" height="272.171"/>
		<polyline fill="none" stroke="#535461" stroke-width="2" stroke-miterlimit="10" points="433.352,444.473 433.352,657.775 
			786.112,657.775 		"/>
		<rect x="464.568" y="593.261" opacity="0.5" fill="#BAE8E4" enable-background="new    " width="36.431" height="56.19"/>
		<rect x="527.002" y="543.314" opacity="0.7" fill="#98BAF5" enable-background="new    " width="36.431" height="106.137"/>
		<rect x="589.435" y="573.502" opacity="0.5" fill="#BAE8E4" enable-background="new    " width="36.431" height="75.973"/>
		<rect x="651.893" y="526.665" opacity="0.8" fill="#98BAF5" enable-background="new    " width="36.431" height="122.786"/>
		<rect x="714.326" y="482.962" fill="#6C63FF" width="36.431" height="166.489"/>
		<polyline fill="none" stroke="#535461" stroke-width="2" stroke-miterlimit="10" points="482.27,558.935 545.732,501.692 
			608.189,555.801 669.57,490.258 732.003,464.232 		"/>
		<circle fill="#FB9644" cx="482.27" cy="558.935" r="7.296"/>
		<circle fill="#FB9644" cx="607.137" cy="554.772" r="7.296"/>
		<circle fill="#FB9644" cx="670.623" cy="490.258" r="7.296"/>
		<circle fill="#FB9644" cx="545.732" cy="500.663" r="7.296"/>
		<circle fill="#FB9644" cx="732.003" cy="464.232" r="7.296"/>
	</g>
	<g>
		<path fill="#F2F2F2" d="M998.968,900.023H684.554c-11.238-0.013-20.345-9.12-20.357-20.357V632.72
			c0.009-8.233,6.681-14.905,14.914-14.914h325.043c8.375,0.01,15.163,6.797,15.172,15.172v246.688
			C1019.313,890.903,1010.206,900.01,998.968,900.023z"/>
		<path fill="#FFFFFF" d="M704.294,879.666h274.933c10.902,0,19.74-8.838,19.74-19.74V670.481c0-10.902-8.838-19.74-19.74-19.74
			H704.294c-10.902,0-19.74,8.838-19.74,19.74v189.444C684.554,870.827,693.392,879.666,704.294,879.666z"/>
		<path fill="#6C63FF" d="M724.526,739.518H710.91c-1.537-0.002-2.783-1.248-2.785-2.785v-13.616
			c0.002-1.537,1.248-2.783,2.785-2.785h13.616c1.537,0.002,2.783,1.248,2.785,2.785v13.616
			C727.31,738.271,726.064,739.517,724.526,739.518z"/>
		<path fill="#3F3D56" d="M724.526,774.796H710.91c-1.537-0.002-2.783-1.248-2.785-2.785v-13.616
			c0.002-1.537,1.248-2.783,2.785-2.785h13.616c1.537,0.002,2.783,1.248,2.785,2.785v13.616
			C727.31,773.549,726.064,774.794,724.526,774.796z"/>
		<path fill="#CCCCCC" d="M724.526,810.074H710.91c-1.537-0.002-2.783-1.248-2.785-2.785v-13.616
			c0.002-1.537,1.248-2.783,2.785-2.785h13.616c1.537,0.002,2.783,1.248,2.785,2.785v13.616
			C727.31,808.826,726.064,810.072,724.526,810.074z"/>
		<path fill="#CCCCCC" d="M813.649,732.71h-65.604c-1.538-0.004-2.782-1.254-2.778-2.792c0.004-1.533,1.245-2.774,2.778-2.778
			h65.604c1.538-0.004,2.788,1.24,2.792,2.778c0.004,1.538-1.24,2.788-2.778,2.792C813.659,732.71,813.654,732.71,813.649,732.71z"
			/>
		<path fill="#CCCCCC" d="M813.649,767.988h-65.604c-1.538-0.004-2.782-1.254-2.778-2.792c0.004-1.533,1.245-2.774,2.778-2.778
			h65.604c1.538,0,2.785,1.247,2.785,2.785S815.187,767.988,813.649,767.988z"/>
		<path fill="#CCCCCC" d="M813.649,803.266h-65.604c-1.538,0-2.785-1.247-2.785-2.785c0-1.538,1.247-2.785,2.785-2.785h65.604
			c1.538,0,2.785,1.247,2.785,2.785C816.435,802.019,815.188,803.266,813.649,803.266L813.649,803.266z"/>
		<path fill="#2A4E96" d="M975.287,766.088c0.07-1.171,0.11-2.35,0.11-3.538c0-32.242-26.137-58.38-58.38-58.38v61.918H975.287z"/>
		<path fill="#FB9644" d="M912.595,771.395v-61.918c-32.242-0.001-58.381,26.135-58.382,58.377
			c-0.001,32.242,26.135,58.381,58.377,58.382c30.869,0.001,56.404-24.029,58.275-54.841H912.595z"/>
	</g>
	<path fill="#32324C" d="M240.382,950.375c0,0-11.667-2.625-13.458,14.167c-1.792,16.792,4.417,26.5,11.208,31.125
		s8.625,8.583,8.625,8.583l-16.042,17.958l-1.042,0.208c0,0-2.125-7.458-2.792-10.75c-0.667-3.292-7.375-57.083-4.708-65.667"/>
</g>
</svg>
